<?xml version="1.0" encoding="UTF-8" standalone="no"?>
<!DOCTYPE svg PUBLIC "-//W3C//DTD SVG 1.1//EN" "http://www.w3.org/Graphics/SVG/1.1/DTD/svg11.dtd">
<svg width="100%" height="100%" viewBox="0 0 3000 600" version="1.1" xmlns="http://www.w3.org/2000/svg" xmlns:xlink="http://www.w3.org/1999/xlink" xml:space="preserve" xmlns:serif="http://www.serif.com/" style="fill-rule:evenodd;clip-rule:evenodd;stroke-linecap:round;stroke-linejoin:round;stroke-miterlimit:1.5;">
    <g transform="matrix(1,0,0,1,-243.349,-430.678)">
        <g transform="matrix(389.6,0,0,389.6,825.433,822.627)">
            <path d="M0.123,0.003C0.107,0.002 0.092,-0 0.078,-0.006C0.064,-0.011 0.05,-0.019 0.037,-0.03C0.058,-0.073 0.074,-0.122 0.085,-0.176C0.096,-0.229 0.101,-0.286 0.101,-0.345C0.101,-0.354 0.101,-0.364 0.1,-0.376C0.099,-0.387 0.098,-0.397 0.096,-0.406C0.088,-0.413 0.08,-0.424 0.073,-0.438C0.066,-0.451 0.06,-0.465 0.056,-0.48C0.051,-0.495 0.049,-0.506 0.049,-0.515C0.056,-0.524 0.07,-0.533 0.09,-0.54C0.11,-0.547 0.129,-0.55 0.146,-0.55C0.153,-0.538 0.159,-0.525 0.164,-0.51C0.169,-0.495 0.174,-0.479 0.178,-0.462C0.195,-0.463 0.218,-0.467 0.245,-0.474C0.266,-0.479 0.284,-0.482 0.297,-0.484C0.31,-0.485 0.321,-0.486 0.33,-0.486C0.366,-0.486 0.394,-0.472 0.415,-0.446C0.436,-0.419 0.446,-0.382 0.446,-0.336L0.446,-0.175C0.446,-0.138 0.451,-0.112 0.461,-0.096C0.47,-0.08 0.486,-0.072 0.507,-0.072C0.516,-0.072 0.524,-0.068 0.529,-0.06C0.534,-0.052 0.536,-0.041 0.536,-0.028C0.536,-0.017 0.533,-0.008 0.528,0.001C0.522,0.01 0.513,0.014 0.5,0.014C0.403,0.014 0.355,-0.045 0.355,-0.164L0.355,-0.319C0.355,-0.349 0.352,-0.37 0.345,-0.382C0.338,-0.394 0.326,-0.4 0.309,-0.4C0.303,-0.4 0.296,-0.399 0.289,-0.398C0.282,-0.397 0.269,-0.394 0.25,-0.39C0.224,-0.385 0.204,-0.381 0.189,-0.379C0.19,-0.367 0.19,-0.355 0.19,-0.343C0.19,-0.284 0.184,-0.224 0.173,-0.163C0.162,-0.101 0.145,-0.046 0.123,0.003Z" style="fill:white;fill-rule:nonzero;"/>
        </g>
        <g transform="matrix(389.6,0,0,389.6,1023.35,822.627)">
            <path d="M-0.001,-0.072C0.013,-0.072 0.028,-0.076 0.044,-0.085C0.06,-0.094 0.075,-0.107 0.089,-0.125C0.108,-0.152 0.122,-0.183 0.13,-0.219C0.137,-0.255 0.141,-0.29 0.141,-0.324L0.141,-0.472C0.147,-0.474 0.154,-0.476 0.162,-0.477C0.17,-0.478 0.178,-0.479 0.187,-0.479C0.202,-0.479 0.217,-0.477 0.232,-0.472L0.232,-0.241C0.232,-0.183 0.241,-0.141 0.26,-0.115C0.279,-0.088 0.308,-0.075 0.348,-0.075C0.443,-0.075 0.491,-0.145 0.491,-0.284L0.491,-0.472C0.496,-0.474 0.503,-0.476 0.511,-0.477C0.519,-0.478 0.527,-0.479 0.536,-0.479C0.552,-0.479 0.567,-0.477 0.582,-0.472L0.582,-0.184C0.582,-0.149 0.588,-0.121 0.599,-0.102C0.61,-0.082 0.628,-0.072 0.654,-0.072C0.665,-0.072 0.673,-0.067 0.677,-0.058C0.681,-0.049 0.683,-0.039 0.683,-0.028C0.683,-0.017 0.68,-0.008 0.675,0.001C0.669,0.01 0.66,0.014 0.647,0.014C0.583,0.014 0.54,-0.014 0.517,-0.07C0.498,-0.043 0.474,-0.022 0.445,-0.008C0.416,0.007 0.381,0.014 0.341,0.014C0.256,0.014 0.198,-0.022 0.167,-0.094C0.156,-0.075 0.144,-0.058 0.131,-0.045C0.113,-0.027 0.092,-0.013 0.069,-0.002C0.045,0.009 0.019,0.014 -0.008,0.014C-0.017,0.014 -0.024,0.01 -0.03,0.001C-0.034,-0.009 -0.037,-0.018 -0.037,-0.029C-0.037,-0.04 -0.034,-0.05 -0.029,-0.059C-0.023,-0.068 -0.014,-0.072 -0.001,-0.072Z" style="fill:white;fill-rule:nonzero;"/>
        </g>
        <g transform="matrix(389.6,0,0,389.6,1278.54,822.627)">
            <path d="M-0.008,0.014C-0.017,0.014 -0.024,0.01 -0.029,0.002C-0.034,-0.006 -0.037,-0.016 -0.037,-0.029C-0.037,-0.058 -0.025,-0.072 -0.001,-0.072C0.02,-0.072 0.04,-0.083 0.057,-0.105C0.074,-0.126 0.088,-0.162 0.101,-0.213L0.131,-0.33C0.159,-0.434 0.212,-0.486 0.291,-0.486C0.321,-0.486 0.346,-0.477 0.367,-0.46C0.388,-0.442 0.402,-0.418 0.41,-0.388C0.429,-0.419 0.453,-0.444 0.482,-0.461C0.511,-0.478 0.544,-0.486 0.58,-0.486C0.632,-0.486 0.672,-0.469 0.701,-0.435C0.729,-0.401 0.743,-0.353 0.743,-0.292L0.743,-0.175C0.743,-0.138 0.748,-0.112 0.758,-0.096C0.767,-0.08 0.783,-0.072 0.804,-0.072C0.813,-0.072 0.821,-0.068 0.826,-0.06C0.83,-0.052 0.833,-0.041 0.833,-0.028C0.833,-0.017 0.83,-0.008 0.825,0.001C0.819,0.01 0.81,0.014 0.797,0.014C0.7,0.014 0.652,-0.045 0.652,-0.164L0.652,-0.292C0.652,-0.364 0.624,-0.4 0.567,-0.4C0.538,-0.4 0.512,-0.388 0.49,-0.365C0.467,-0.342 0.45,-0.309 0.438,-0.268C0.425,-0.227 0.419,-0.179 0.419,-0.124L0.419,-0C0.412,0.002 0.405,0.004 0.397,0.005C0.389,0.006 0.381,0.007 0.374,0.007C0.358,0.007 0.343,0.005 0.329,-0L0.329,-0.319C0.329,-0.345 0.326,-0.365 0.319,-0.379C0.312,-0.393 0.3,-0.4 0.283,-0.4C0.269,-0.4 0.257,-0.394 0.247,-0.381C0.237,-0.368 0.228,-0.348 0.221,-0.32L0.184,-0.176C0.167,-0.11 0.143,-0.062 0.112,-0.032C0.081,-0.001 0.041,0.014 -0.008,0.014Z" style="fill:white;fill-rule:nonzero;"/>
        </g>
        <g transform="matrix(389.6,0,0,389.6,1592.17,822.627)">
            <path d="M-0.001,-0.072C0.02,-0.072 0.042,-0.082 0.063,-0.103C0.084,-0.124 0.102,-0.152 0.117,-0.187C0.114,-0.202 0.113,-0.218 0.113,-0.234C0.113,-0.283 0.122,-0.327 0.141,-0.365C0.16,-0.402 0.186,-0.432 0.219,-0.454C0.252,-0.475 0.289,-0.486 0.332,-0.486C0.364,-0.486 0.393,-0.48 0.42,-0.468C0.446,-0.455 0.467,-0.437 0.484,-0.414C0.476,-0.387 0.457,-0.367 0.426,-0.355C0.404,-0.385 0.374,-0.4 0.335,-0.4C0.296,-0.4 0.265,-0.386 0.242,-0.357C0.218,-0.327 0.206,-0.288 0.206,-0.239C0.206,-0.188 0.221,-0.148 0.251,-0.117C0.28,-0.086 0.322,-0.071 0.377,-0.071C0.386,-0.071 0.393,-0.067 0.399,-0.059C0.404,-0.05 0.407,-0.04 0.407,-0.027C0.407,-0.014 0.404,-0.004 0.398,0.003C0.391,0.01 0.382,0.014 0.371,0.014C0.324,0.014 0.282,0.005 0.245,-0.012C0.208,-0.029 0.179,-0.054 0.157,-0.085C0.116,-0.019 0.061,0.014 -0.008,0.014C-0.017,0.014 -0.024,0.01 -0.029,0.002C-0.034,-0.006 -0.037,-0.016 -0.037,-0.029C-0.037,-0.058 -0.025,-0.072 -0.001,-0.072Z" style="fill:white;fill-rule:nonzero;"/>
        </g>
        <g transform="matrix(389.6,0,0,389.6,1778.39,822.627)">
            <path d="M-0.106,0.014C-0.115,0.014 -0.122,0.01 -0.128,0.002C-0.133,-0.006 -0.136,-0.016 -0.136,-0.029C-0.136,-0.057 -0.124,-0.071 -0.099,-0.071C-0.051,-0.071 -0.007,-0.088 0.033,-0.122C0.073,-0.155 0.109,-0.203 0.14,-0.266L0.14,-0.779C0.14,-0.846 0.154,-0.897 0.183,-0.933C0.211,-0.969 0.252,-0.987 0.306,-0.986C0.355,-0.985 0.394,-0.967 0.422,-0.93C0.449,-0.893 0.463,-0.846 0.463,-0.787C0.463,-0.69 0.434,-0.581 0.375,-0.462C0.38,-0.463 0.384,-0.463 0.389,-0.463C0.439,-0.463 0.479,-0.445 0.509,-0.41C0.538,-0.375 0.553,-0.327 0.553,-0.268L0.553,-0.182C0.553,-0.143 0.558,-0.115 0.568,-0.098C0.577,-0.081 0.593,-0.072 0.616,-0.072C0.627,-0.072 0.634,-0.068 0.639,-0.06C0.644,-0.051 0.646,-0.041 0.646,-0.028C0.646,-0.015 0.643,-0.005 0.637,0.003C0.63,0.01 0.621,0.014 0.61,0.014C0.562,0.014 0.525,-0.002 0.5,-0.033C0.474,-0.064 0.461,-0.107 0.461,-0.164L0.461,-0.27C0.461,-0.304 0.454,-0.331 0.439,-0.35C0.424,-0.369 0.402,-0.378 0.375,-0.378C0.348,-0.378 0.324,-0.369 0.303,-0.352C0.282,-0.334 0.265,-0.31 0.252,-0.279C0.239,-0.248 0.233,-0.213 0.232,-0.173L0.232,-0C0.225,0.002 0.218,0.004 0.21,0.005C0.202,0.006 0.194,0.007 0.187,0.007C0.172,0.007 0.156,0.005 0.14,-0L0.14,-0.112C0.107,-0.069 0.07,-0.038 0.027,-0.017C-0.016,0.004 -0.06,0.014 -0.106,0.014ZM0.229,-0.78L0.229,-0.386C0.276,-0.457 0.312,-0.527 0.337,-0.596C0.362,-0.665 0.374,-0.729 0.374,-0.788C0.374,-0.825 0.368,-0.854 0.356,-0.874C0.343,-0.893 0.325,-0.903 0.302,-0.903C0.253,-0.903 0.229,-0.862 0.229,-0.78Z" style="fill:white;fill-rule:nonzero;"/>
        </g>
        <g transform="matrix(389.6,0,0,389.6,2019.17,822.627)">
            <path d="M0.3,0.514C0.244,0.514 0.204,0.493 0.179,0.452C0.154,0.411 0.142,0.354 0.142,0.281L0.142,-0.051C0.119,-0.028 0.096,-0.011 0.073,-0.001C0.049,0.009 0.022,0.014 -0.007,0.014C-0.016,0.014 -0.023,0.01 -0.028,0.002C-0.033,-0.006 -0.036,-0.016 -0.036,-0.029C-0.036,-0.042 -0.033,-0.053 -0.027,-0.061C-0.02,-0.068 -0.012,-0.072 -0.001,-0.072C0.022,-0.072 0.045,-0.08 0.068,-0.096C0.091,-0.111 0.115,-0.136 0.142,-0.171L0.142,-0.75C0.142,-0.786 0.145,-0.819 0.151,-0.849C0.156,-0.878 0.166,-0.904 0.181,-0.925C0.193,-0.943 0.209,-0.958 0.228,-0.969C0.247,-0.98 0.27,-0.986 0.299,-0.986C0.351,-0.986 0.391,-0.963 0.419,-0.916C0.447,-0.869 0.461,-0.803 0.461,-0.718C0.461,-0.515 0.399,-0.338 0.274,-0.188C0.318,-0.173 0.356,-0.142 0.387,-0.094C0.41,-0.079 0.433,-0.072 0.457,-0.072C0.466,-0.072 0.473,-0.068 0.478,-0.06C0.483,-0.052 0.486,-0.041 0.486,-0.028C0.486,-0.015 0.483,-0.005 0.477,0.003C0.47,0.01 0.461,0.014 0.45,0.014L0.437,0.014C0.448,0.047 0.456,0.084 0.462,0.124C0.467,0.163 0.47,0.205 0.47,0.249C0.47,0.336 0.456,0.402 0.427,0.447C0.397,0.492 0.355,0.514 0.3,0.514ZM0.231,-0.771L0.231,-0.272C0.276,-0.334 0.311,-0.403 0.336,-0.481C0.36,-0.558 0.372,-0.637 0.372,-0.719C0.372,-0.779 0.366,-0.825 0.354,-0.856C0.341,-0.887 0.323,-0.903 0.299,-0.903C0.254,-0.903 0.231,-0.859 0.231,-0.771ZM0.231,0.281C0.231,0.331 0.237,0.369 0.248,0.394C0.259,0.419 0.278,0.432 0.305,0.432C0.33,0.432 0.349,0.416 0.362,0.384C0.375,0.351 0.382,0.304 0.382,0.242C0.382,0.137 0.368,0.052 0.339,-0.012C0.317,-0.021 0.297,-0.032 0.278,-0.045C0.259,-0.058 0.243,-0.071 0.231,-0.085L0.231,0.281Z" style="fill:white;fill-rule:nonzero;"/>
        </g>
        <g transform="matrix(389.6,0,0,389.6,2197.6,822.627)">
            <path d="M-0.001,-0.072C0.021,-0.072 0.043,-0.083 0.064,-0.104C0.085,-0.125 0.102,-0.153 0.117,-0.188C0.114,-0.204 0.113,-0.22 0.113,-0.237C0.113,-0.285 0.123,-0.328 0.144,-0.365C0.165,-0.402 0.193,-0.432 0.229,-0.454C0.264,-0.475 0.304,-0.486 0.349,-0.486C0.394,-0.486 0.434,-0.475 0.469,-0.454C0.504,-0.432 0.532,-0.402 0.553,-0.365C0.573,-0.328 0.583,-0.285 0.583,-0.237C0.583,-0.189 0.573,-0.146 0.553,-0.108C0.532,-0.07 0.505,-0.04 0.47,-0.019C0.435,0.003 0.394,0.014 0.349,0.014C0.308,0.014 0.272,0.005 0.239,-0.013C0.206,-0.03 0.178,-0.054 0.157,-0.085C0.116,-0.019 0.061,0.014 -0.008,0.014C-0.017,0.014 -0.024,0.01 -0.029,0.002C-0.034,-0.006 -0.037,-0.016 -0.037,-0.029C-0.037,-0.058 -0.025,-0.072 -0.001,-0.072ZM0.348,-0.072C0.391,-0.072 0.425,-0.087 0.451,-0.117C0.476,-0.147 0.489,-0.187 0.489,-0.237C0.489,-0.262 0.485,-0.284 0.478,-0.305C0.438,-0.306 0.402,-0.314 0.37,-0.329C0.337,-0.344 0.312,-0.364 0.293,-0.389C0.266,-0.378 0.245,-0.359 0.23,-0.332C0.215,-0.305 0.207,-0.272 0.207,-0.235C0.207,-0.186 0.22,-0.147 0.246,-0.117C0.271,-0.087 0.305,-0.072 0.348,-0.072Z" style="fill:white;fill-rule:nonzero;"/>
        </g>
        <g transform="matrix(389.6,0,0,389.6,2443.44,822.627)">
            <path d="M-0.103,-0.313C-0.114,-0.316 -0.122,-0.321 -0.127,-0.326C-0.132,-0.331 -0.134,-0.338 -0.134,-0.347C-0.134,-0.36 -0.131,-0.372 -0.124,-0.381C-0.117,-0.39 -0.109,-0.395 -0.1,-0.395C-0.097,-0.395 -0.095,-0.395 -0.092,-0.395C-0.089,-0.394 -0.086,-0.393 -0.081,-0.392C-0.078,-0.391 -0.074,-0.391 -0.069,-0.39C-0.064,-0.389 -0.06,-0.389 -0.055,-0.389C-0.04,-0.389 -0.028,-0.392 -0.017,-0.398C-0.006,-0.403 0.003,-0.413 0.012,-0.428C0.003,-0.445 -0.004,-0.463 -0.009,-0.481C-0.014,-0.499 -0.019,-0.52 -0.024,-0.543C-0.014,-0.554 -0.002,-0.563 0.012,-0.57C0.026,-0.576 0.039,-0.579 0.052,-0.579C0.069,-0.579 0.083,-0.571 0.094,-0.555C0.105,-0.539 0.11,-0.518 0.11,-0.493C0.11,-0.486 0.11,-0.479 0.109,-0.472C0.112,-0.473 0.114,-0.473 0.117,-0.474C0.138,-0.479 0.156,-0.482 0.169,-0.484C0.182,-0.485 0.193,-0.486 0.202,-0.486C0.238,-0.486 0.266,-0.472 0.287,-0.446C0.308,-0.419 0.318,-0.382 0.318,-0.336L0.318,-0.175C0.318,-0.138 0.323,-0.112 0.333,-0.096C0.342,-0.08 0.358,-0.072 0.379,-0.072C0.388,-0.072 0.396,-0.068 0.401,-0.06C0.406,-0.052 0.408,-0.041 0.408,-0.028C0.408,-0.017 0.405,-0.008 0.4,0.001C0.394,0.01 0.385,0.014 0.372,0.014C0.275,0.014 0.227,-0.045 0.227,-0.164L0.227,-0.319C0.227,-0.349 0.224,-0.37 0.217,-0.382C0.21,-0.394 0.198,-0.4 0.181,-0.4C0.175,-0.4 0.168,-0.399 0.161,-0.398C0.154,-0.397 0.141,-0.394 0.122,-0.39C0.107,-0.387 0.094,-0.384 0.083,-0.382C0.068,-0.358 0.049,-0.339 0.025,-0.326C0,-0.312 -0.028,-0.305 -0.059,-0.305C-0.074,-0.305 -0.088,-0.308 -0.103,-0.313Z" style="fill:white;fill-rule:nonzero;"/>
        </g>
        <g transform="matrix(389.6,0,0,389.6,2591.49,822.627)">
            <path d="M-0.008,0.014C-0.017,0.014 -0.024,0.01 -0.029,0.002C-0.034,-0.006 -0.037,-0.016 -0.037,-0.029C-0.037,-0.058 -0.025,-0.072 -0.001,-0.072C0.02,-0.072 0.04,-0.083 0.057,-0.105C0.074,-0.126 0.088,-0.162 0.101,-0.213L0.131,-0.33C0.159,-0.434 0.212,-0.486 0.291,-0.486C0.32,-0.486 0.344,-0.478 0.365,-0.462C0.385,-0.445 0.399,-0.423 0.408,-0.394C0.423,-0.423 0.444,-0.446 0.469,-0.462C0.494,-0.478 0.522,-0.486 0.553,-0.486C0.618,-0.486 0.663,-0.452 0.686,-0.385C0.702,-0.417 0.724,-0.442 0.751,-0.46C0.778,-0.477 0.809,-0.486 0.844,-0.486C0.891,-0.486 0.928,-0.471 0.953,-0.441C0.978,-0.411 0.991,-0.369 0.991,-0.314L0.991,-0.175C0.991,-0.138 0.996,-0.112 1.006,-0.096C1.015,-0.08 1.031,-0.072 1.052,-0.072C1.061,-0.072 1.069,-0.068 1.074,-0.06C1.079,-0.052 1.081,-0.041 1.081,-0.028C1.081,-0.017 1.078,-0.008 1.073,0.001C1.067,0.01 1.058,0.014 1.045,0.014C0.948,0.014 0.9,-0.045 0.9,-0.164L0.9,-0.292C0.9,-0.327 0.894,-0.353 0.881,-0.372C0.868,-0.391 0.85,-0.4 0.827,-0.4C0.792,-0.4 0.764,-0.38 0.744,-0.34C0.723,-0.299 0.713,-0.243 0.713,-0.172L0.713,-0C0.706,0.002 0.699,0.004 0.691,0.005C0.683,0.006 0.675,0.007 0.668,0.007C0.652,0.007 0.637,0.005 0.622,-0L0.622,-0.278C0.622,-0.317 0.615,-0.347 0.602,-0.369C0.588,-0.39 0.568,-0.4 0.541,-0.4C0.516,-0.4 0.495,-0.391 0.477,-0.372C0.459,-0.353 0.445,-0.326 0.435,-0.292C0.424,-0.257 0.419,-0.217 0.419,-0.172L0.419,-0C0.412,0.002 0.405,0.004 0.397,0.005C0.389,0.006 0.381,0.007 0.374,0.007C0.357,0.007 0.342,0.005 0.329,-0L0.329,-0.319C0.329,-0.373 0.314,-0.4 0.283,-0.4C0.269,-0.4 0.257,-0.394 0.247,-0.381C0.237,-0.368 0.228,-0.348 0.221,-0.32L0.184,-0.176C0.167,-0.11 0.143,-0.062 0.112,-0.032C0.081,-0.001 0.041,0.014 -0.008,0.014Z" style="fill:white;fill-rule:nonzero;"/>
        </g>
        <g transform="matrix(389.6,0,0,389.6,3001.74,822.627)">
            <path d="M-0.008,0.014C-0.017,0.014 -0.024,0.01 -0.029,0.002C-0.034,-0.006 -0.037,-0.016 -0.037,-0.029C-0.037,-0.058 -0.025,-0.072 -0.001,-0.072C0.02,-0.072 0.044,-0.085 0.07,-0.112C0.096,-0.138 0.126,-0.18 0.161,-0.239L0.268,-0.42C0.267,-0.429 0.266,-0.439 0.266,-0.45C0.266,-0.483 0.272,-0.508 0.285,-0.524C0.297,-0.54 0.307,-0.55 0.315,-0.553C0.326,-0.556 0.339,-0.556 0.352,-0.553C0.365,-0.55 0.376,-0.545 0.387,-0.538C0.398,-0.531 0.405,-0.523 0.409,-0.514C0.406,-0.502 0.401,-0.488 0.394,-0.471C0.387,-0.454 0.375,-0.432 0.359,-0.404C0.364,-0.397 0.37,-0.389 0.377,-0.382C0.384,-0.375 0.393,-0.367 0.404,-0.358L0.48,-0.296C0.507,-0.274 0.528,-0.251 0.542,-0.228C0.555,-0.204 0.562,-0.177 0.562,-0.148C0.562,-0.117 0.554,-0.09 0.539,-0.065C0.524,-0.04 0.502,-0.021 0.475,-0.007C0.448,0.007 0.416,0.014 0.38,0.014C0.357,0.014 0.333,0.011 0.31,0.004C0.287,-0.004 0.262,-0.015 0.237,-0.03C0.236,-0.065 0.249,-0.091 0.277,-0.108C0.314,-0.084 0.348,-0.072 0.381,-0.072C0.409,-0.072 0.431,-0.08 0.448,-0.095C0.465,-0.11 0.473,-0.129 0.473,-0.152C0.473,-0.181 0.457,-0.209 0.425,-0.234L0.349,-0.294C0.336,-0.305 0.324,-0.316 0.313,-0.327L0.213,-0.158C0.176,-0.096 0.141,-0.052 0.108,-0.026C0.074,0.001 0.035,0.014 -0.008,0.014Z" style="fill:white;fill-rule:nonzero;"/>
        </g>
    </g>
    <g transform="matrix(0.331241,0,0,0.331241,-85.4355,-59.7935)">
        <path d="M1380.27,435.673C235.436,285.847 152.908,1858.09 1406.38,1649.09C1794.31,1584.41 1691.41,1322.14 1638.51,1260.48C1562.83,1172.26 1423.1,1167.06 1328.37,1226.8C1207.1,1303.28 1229.35,1461.26 1270.78,1543.09C1442.13,1881.52 1867.46,1696.14 1867.46,1696.14" style="fill:none;stroke:white;stroke-width:130px;"/>
    </g>
</svg>
